<?xml version="1.0" encoding="UTF-8"?>
<svg version="1.1" xmlns="http://www.w3.org/2000/svg" width="500" height="506">
<path d="M0 0 C5.00685202 2.32460987 7.27137555 5.27911553 10 10 C11.04281673 13.14173996 11.72503225 16.33256718 12.40234375 19.5703125 C12.60678604 20.48779266 12.81122833 21.40527283 13.02186584 22.35055542 C13.67242006 25.27287865 14.30673884 28.19834545 14.9375 31.125 C20.95946554 59.65831742 20.95946554 59.65831742 40 81 C51.17524312 87.00554878 64.00309747 88.99174224 76.26220703 91.70043945 C79.06004292 92.32257789 81.85420084 92.95957932 84.6484375 93.59765625 C85.92356705 93.87126732 85.92356705 93.87126732 87.22445679 94.15040588 C93.46207549 95.58022747 97.88791125 97.77674868 102.375 102.5 C104.77303575 107.66500009 104.75381535 112.4002288 104 118 C101.67497052 123.00775581 98.71599754 125.26335428 94 128 C90.93112406 129.03768754 87.81355763 129.72318774 84.6484375 130.40234375 C83.75315338 130.60678604 82.85786926 130.81122833 81.93545532 131.02186584 C79.08448811 131.67224226 76.23033625 132.30660252 73.375 132.9375 C46.58452207 138.52876866 46.58452207 138.52876866 26.625 156.4375 C21.95605017 164.17507961 19.43588889 172.38634813 17.5625 181.171875 C17.13822287 183.07165972 16.71373763 184.97139796 16.2890625 186.87109375 C15.63997671 189.8215285 14.99505303 192.77280021 14.35449219 195.72509766 C13.72622616 198.6056831 13.08264888 201.48253122 12.4375 204.359375 C12.25195557 205.23760925 12.06641113 206.11584351 11.87524414 207.02069092 C10.44549103 213.35278472 8.29492689 217.81981945 3.5 222.375 C-1.66500009 224.77303575 -6.4002288 224.75381535 -12 224 C-17.00685202 221.67539013 -19.27137555 218.72088447 -22 214 C-23.04281673 210.85826004 -23.72503225 207.66743282 -24.40234375 204.4296875 C-24.70900719 203.05346725 -24.70900719 203.05346725 -25.02186584 201.64944458 C-25.67242006 198.72712135 -26.30673884 195.80165455 -26.9375 192.875 C-32.95946554 164.34168258 -32.95946554 164.34168258 -52 143 C-63.17524312 136.99445122 -76.00309747 135.00825776 -88.26220703 132.29956055 C-91.06004292 131.67742211 -93.85420084 131.04042068 -96.6484375 130.40234375 C-97.49852386 130.21993637 -98.34861023 130.03752899 -99.22445679 129.84959412 C-105.46207549 128.41977253 -109.88791125 126.22325132 -114.375 121.5 C-116.77303575 116.33499991 -116.75381535 111.5997712 -116 106 C-113.67497052 100.99224419 -110.71599754 98.73664572 -106 96 C-102.93112406 94.96231246 -99.81355763 94.27681226 -96.6484375 93.59765625 C-95.75315338 93.39321396 -94.85786926 93.18877167 -93.93545532 92.97813416 C-91.08448811 92.32775774 -88.23033625 91.69339748 -85.375 91.0625 C-58.58452207 85.47123134 -58.58452207 85.47123134 -38.625 67.5625 C-33.95605017 59.82492039 -31.43588889 51.61365187 -29.5625 42.828125 C-29.13822287 40.92834028 -28.71373763 39.02860204 -28.2890625 37.12890625 C-27.63997671 34.1784715 -26.99505303 31.22719979 -26.35449219 28.27490234 C-25.72622616 25.3943169 -25.08264888 22.51746878 -24.4375 19.640625 C-24.25195557 18.76239075 -24.06641113 17.88415649 -23.87524414 16.97930908 C-22.44549103 10.64721528 -20.29492689 6.18018055 -15.5 1.625 C-10.33499991 -0.77303575 -5.5997712 -0.75381535 0 0 Z " fill="#8D0BF8" transform="translate(381,10)"/>
<path d="M0 0 C1.14734047 -0.00872064 1.14734047 -0.00872064 2.31785953 -0.01761746 C4.88407639 -0.03222973 7.44933862 -0.01832692 10.01554871 -0.00457001 C11.87261602 -0.00917844 13.7296797 -0.01553097 15.58673573 -0.02347898 C20.69240321 -0.04020329 25.79777228 -0.0319118 30.90344095 -0.01953411 C36.40863491 -0.01049866 41.91377688 -0.02444587 47.41896057 -0.0354538 C58.20463141 -0.05325967 68.99019104 -0.0493898 79.77586627 -0.03780323 C88.53998399 -0.02877733 97.3040705 -0.02754126 106.06819153 -0.0318985 C107.31455881 -0.03251143 108.56092609 -0.03312436 109.84506208 -0.03375587 C112.3768685 -0.03503474 114.9086749 -0.0363316 117.44048131 -0.03764623 C140.51545805 -0.04873264 163.59038223 -0.03722687 186.66534622 -0.01627585 C207.73255235 0.00270676 228.79966178 0.00100826 249.86686707 -0.01811981 C273.5330275 -0.03953576 297.19914534 -0.0479594 320.86531734 -0.03567076 C323.38791846 -0.03439653 325.91051959 -0.03313905 328.43312073 -0.0318985 C330.29497386 -0.03097285 330.29497386 -0.03097285 332.19444019 -0.03002849 C340.95014067 -0.02657178 349.70580689 -0.03241086 358.46150208 -0.04181671 C369.12875618 -0.05302394 379.79589252 -0.05002348 390.4631331 -0.02869374 C395.90790048 -0.01816619 401.35247137 -0.01409058 406.7972374 -0.02729034 C411.77878831 -0.03918467 416.75996004 -0.03270053 421.74147642 -0.01138014 C423.54623329 -0.00690151 425.351022 -0.00920848 427.1557585 -0.01888329 C429.604735 -0.03100752 432.05240451 -0.01861353 434.50131226 0 C435.20579054 -0.00936466 435.91026882 -0.01872933 436.63609493 -0.02837777 C441.61372854 0.04749376 444.39440406 1.42776157 448.25065613 4.50336456 C451.87899276 8.32266628 452.56066071 11.38615462 452.75065613 16.50336456 C452.56066071 21.6205745 451.87899276 24.68406284 448.25065613 28.50336456 C443.68525768 32.14455629 440.21100978 33.08262842 434.50131226 33.00672913 C433.73641861 33.01254289 432.97152497 33.01835665 432.18345273 33.02434659 C429.61723586 33.03895886 427.05197363 33.02505605 424.48576355 33.01129913 C422.62869623 33.01590757 420.77163256 33.0222601 418.91457653 33.03020811 C413.80890905 33.04693241 408.70353997 33.03864093 403.5978713 33.02626324 C398.09267735 33.01722778 392.58753537 33.031175 387.08235168 33.04218292 C376.29668085 33.0599888 365.51112122 33.05611893 354.72544599 33.04453236 C345.96132827 33.03550645 337.19724176 33.03427039 328.43312073 33.03862762 C327.18675345 33.03924056 325.94038617 33.03985349 324.65625018 33.04048499 C322.12444376 33.04176387 319.59263735 33.04306072 317.06083095 33.04437536 C293.9858542 33.05546177 270.91093003 33.043956 247.83596604 33.02300497 C226.7687599 33.00402236 205.70165048 33.00572087 184.63444519 33.02484894 C160.96828475 33.04626489 137.30216691 33.05468853 113.63599491 33.04239988 C111.11339379 33.04112566 108.59079266 33.03986818 106.06819153 33.03862762 C104.2063384 33.03770197 104.2063384 33.03770197 102.30687207 33.03675762 C93.55117158 33.03330091 84.79550536 33.03913998 76.03981018 33.04854584 C65.37255608 33.05975307 54.70541974 33.0567526 44.03817916 33.03542286 C38.59341177 33.02489532 33.14884088 33.02081971 27.70407486 33.03401947 C22.72252395 33.0459138 17.74135221 33.03942965 12.75983584 33.01810926 C10.95507897 33.01363064 9.15029025 33.0159376 7.34555376 33.02561241 C4.89657726 33.03773665 2.44890775 33.02534265 0 33.00672913 C-0.70447828 33.01609379 -1.40895656 33.02545846 -2.13478267 33.0351069 C-7.11241628 32.95923537 -9.8930918 31.57896756 -13.74934387 28.50336456 C-17.37768051 24.68406284 -18.05934845 21.6205745 -18.24934387 16.50336456 C-18.05934845 11.38615462 -17.37768051 8.32266628 -13.74934387 4.50336456 C-9.18394543 0.86217283 -5.70969753 -0.07589929 0 0 Z " fill="#B61BEE" transform="translate(32.74934387207031,457.4966354370117)"/>
<path d="M0 0 C1.14734047 -0.00872064 1.14734047 -0.00872064 2.31785953 -0.01761746 C4.88407639 -0.03222973 7.44933862 -0.01832692 10.01554871 -0.00457001 C11.87261602 -0.00917844 13.7296797 -0.01553097 15.58673573 -0.02347898 C20.69240321 -0.04020329 25.79777228 -0.0319118 30.90344095 -0.01953411 C36.40863491 -0.01049866 41.91377688 -0.02444587 47.41896057 -0.0354538 C58.20463141 -0.05325967 68.99019104 -0.0493898 79.77586627 -0.03780323 C88.53998399 -0.02877733 97.3040705 -0.02754126 106.06819153 -0.0318985 C107.31455881 -0.03251143 108.56092609 -0.03312436 109.84506208 -0.03375587 C112.3768685 -0.03503474 114.9086749 -0.0363316 117.44048131 -0.03764623 C140.51545805 -0.04873264 163.59038223 -0.03722687 186.66534622 -0.01627585 C207.73255235 0.00270676 228.79966178 0.00100826 249.86686707 -0.01811981 C273.5330275 -0.03953576 297.19914534 -0.0479594 320.86531734 -0.03567076 C323.38791846 -0.03439653 325.91051959 -0.03313905 328.43312073 -0.0318985 C330.29497386 -0.03097285 330.29497386 -0.03097285 332.19444019 -0.03002849 C340.95014067 -0.02657178 349.70580689 -0.03241086 358.46150208 -0.04181671 C369.12875618 -0.05302394 379.79589252 -0.05002348 390.4631331 -0.02869374 C395.90790048 -0.01816619 401.35247137 -0.01409058 406.7972374 -0.02729034 C411.77878831 -0.03918467 416.75996004 -0.03270053 421.74147642 -0.01138014 C423.54623329 -0.00690151 425.351022 -0.00920848 427.1557585 -0.01888329 C429.604735 -0.03100752 432.05240451 -0.01861353 434.50131226 0 C435.20579054 -0.00936466 435.91026882 -0.01872933 436.63609493 -0.02837777 C441.61372854 0.04749376 444.39440406 1.42776157 448.25065613 4.50336456 C451.87899276 8.32266628 452.56066071 11.38615462 452.75065613 16.50336456 C452.56066071 21.6205745 451.87899276 24.68406284 448.25065613 28.50336456 C443.68525768 32.14455629 440.21100978 33.08262842 434.50131226 33.00672913 C433.73641861 33.01254289 432.97152497 33.01835665 432.18345273 33.02434659 C429.61723586 33.03895886 427.05197363 33.02505605 424.48576355 33.01129913 C422.62869623 33.01590757 420.77163256 33.0222601 418.91457653 33.03020811 C413.80890905 33.04693241 408.70353997 33.03864093 403.5978713 33.02626324 C398.09267735 33.01722778 392.58753537 33.031175 387.08235168 33.04218292 C376.29668085 33.0599888 365.51112122 33.05611893 354.72544599 33.04453236 C345.96132827 33.03550645 337.19724176 33.03427039 328.43312073 33.03862762 C327.18675345 33.03924056 325.94038617 33.03985349 324.65625018 33.04048499 C322.12444376 33.04176387 319.59263735 33.04306072 317.06083095 33.04437536 C293.9858542 33.05546177 270.91093003 33.043956 247.83596604 33.02300497 C226.7687599 33.00402236 205.70165048 33.00572087 184.63444519 33.02484894 C160.96828475 33.04626489 137.30216691 33.05468853 113.63599491 33.04239988 C111.11339379 33.04112566 108.59079266 33.03986818 106.06819153 33.03862762 C104.2063384 33.03770197 104.2063384 33.03770197 102.30687207 33.03675762 C93.55117158 33.03330091 84.79550536 33.03913998 76.03981018 33.04854584 C65.37255608 33.05975307 54.70541974 33.0567526 44.03817916 33.03542286 C38.59341177 33.02489532 33.14884088 33.02081971 27.70407486 33.03401947 C22.72252395 33.0459138 17.74135221 33.03942965 12.75983584 33.01810926 C10.95507897 33.01363064 9.15029025 33.0159376 7.34555376 33.02561241 C4.89657726 33.03773665 2.44890775 33.02534265 0 33.00672913 C-0.70447828 33.01609379 -1.40895656 33.02545846 -2.13478267 33.0351069 C-7.11241628 32.95923537 -9.8930918 31.57896756 -13.74934387 28.50336456 C-17.37768051 24.68406284 -18.05934845 21.6205745 -18.24934387 16.50336456 C-18.05934845 11.38615462 -17.37768051 8.32266628 -13.74934387 4.50336456 C-9.18394543 0.86217283 -5.70969753 -0.07589929 0 0 Z " fill="#A615F2" transform="translate(32.74934387207031,361.4966354370117)"/>
<path d="M0 0 C1.14734047 -0.00872064 1.14734047 -0.00872064 2.31785953 -0.01761746 C4.88407639 -0.03222973 7.44933862 -0.01832692 10.01554871 -0.00457001 C11.87261602 -0.00917844 13.7296797 -0.01553097 15.58673573 -0.02347898 C20.69240321 -0.04020329 25.79777228 -0.0319118 30.90344095 -0.01953411 C36.40863491 -0.01049866 41.91377688 -0.02444587 47.41896057 -0.0354538 C58.20463141 -0.05325967 68.99019104 -0.0493898 79.77586627 -0.03780323 C88.53998399 -0.02877733 97.3040705 -0.02754126 106.06819153 -0.0318985 C107.31455881 -0.03251143 108.56092609 -0.03312436 109.84506208 -0.03375587 C112.3768685 -0.03503474 114.9086749 -0.0363316 117.44048131 -0.03764623 C140.51545805 -0.04873264 163.59038223 -0.03722687 186.66534622 -0.01627585 C207.73255235 0.00270676 228.79966178 0.00100826 249.86686707 -0.01811981 C273.5330275 -0.03953576 297.19914534 -0.0479594 320.86531734 -0.03567076 C323.38791846 -0.03439653 325.91051959 -0.03313905 328.43312073 -0.0318985 C330.29497386 -0.03097285 330.29497386 -0.03097285 332.19444019 -0.03002849 C340.95014067 -0.02657178 349.70580689 -0.03241086 358.46150208 -0.04181671 C369.12875618 -0.05302394 379.79589252 -0.05002348 390.4631331 -0.02869374 C395.90790048 -0.01816619 401.35247137 -0.01409058 406.7972374 -0.02729034 C411.77878831 -0.03918467 416.75996004 -0.03270053 421.74147642 -0.01138014 C423.54623329 -0.00690151 425.351022 -0.00920848 427.1557585 -0.01888329 C429.604735 -0.03100752 432.05240451 -0.01861353 434.50131226 0 C435.20579054 -0.00936466 435.91026882 -0.01872933 436.63609493 -0.02837777 C441.61372854 0.04749376 444.39440406 1.42776157 448.25065613 4.50336456 C451.87899276 8.32266628 452.56066071 11.38615462 452.75065613 16.50336456 C452.56066071 21.6205745 451.87899276 24.68406284 448.25065613 28.50336456 C443.68525768 32.14455629 440.21100978 33.08262842 434.50131226 33.00672913 C433.73641861 33.01254289 432.97152497 33.01835665 432.18345273 33.02434659 C429.61723586 33.03895886 427.05197363 33.02505605 424.48576355 33.01129913 C422.62869623 33.01590757 420.77163256 33.0222601 418.91457653 33.03020811 C413.80890905 33.04693241 408.70353997 33.03864093 403.5978713 33.02626324 C398.09267735 33.01722778 392.58753537 33.031175 387.08235168 33.04218292 C376.29668085 33.0599888 365.51112122 33.05611893 354.72544599 33.04453236 C345.96132827 33.03550645 337.19724176 33.03427039 328.43312073 33.03862762 C327.18675345 33.03924056 325.94038617 33.03985349 324.65625018 33.04048499 C322.12444376 33.04176387 319.59263735 33.04306072 317.06083095 33.04437536 C293.9858542 33.05546177 270.91093003 33.043956 247.83596604 33.02300497 C226.7687599 33.00402236 205.70165048 33.00572087 184.63444519 33.02484894 C160.96828475 33.04626489 137.30216691 33.05468853 113.63599491 33.04239988 C111.11339379 33.04112566 108.59079266 33.03986818 106.06819153 33.03862762 C104.2063384 33.03770197 104.2063384 33.03770197 102.30687207 33.03675762 C93.55117158 33.03330091 84.79550536 33.03913998 76.03981018 33.04854584 C65.37255608 33.05975307 54.70541974 33.0567526 44.03817916 33.03542286 C38.59341177 33.02489532 33.14884088 33.02081971 27.70407486 33.03401947 C22.72252395 33.0459138 17.74135221 33.03942965 12.75983584 33.01810926 C10.95507897 33.01363064 9.15029025 33.0159376 7.34555376 33.02561241 C4.89657726 33.03773665 2.44890775 33.02534265 0 33.00672913 C-0.70447828 33.01609379 -1.40895656 33.02545846 -2.13478267 33.0351069 C-7.11241628 32.95923537 -9.8930918 31.57896756 -13.74934387 28.50336456 C-17.37768051 24.68406284 -18.05934845 21.6205745 -18.24934387 16.50336456 C-18.05934845 11.38615462 -17.37768051 8.32266628 -13.74934387 4.50336456 C-9.18394543 0.86217283 -5.70969753 -0.07589929 0 0 Z " fill="#960FF6" transform="translate(32.74934387207031,265.4966354370117)"/>
<path d="M0 0 C0.75226679 -0.00623996 1.50453358 -0.01247993 2.27959633 -0.01890898 C4.79007311 -0.03481206 7.29957531 -0.02224586 9.81005859 -0.00964355 C11.61399907 -0.01506589 13.41793512 -0.02218917 15.22186279 -0.03088379 C20.11442692 -0.04910686 25.00665336 -0.04205378 29.89922333 -0.02936745 C35.02136642 -0.01923455 40.14348076 -0.02863394 45.265625 -0.03491211 C53.8670775 -0.04218766 62.46839258 -0.0326032 71.06982422 -0.0135498 C81.01172969 0.00821873 90.95330703 0.0011673 100.89520454 -0.02085543 C109.43380605 -0.03901202 117.97230881 -0.04156646 126.51092339 -0.03110075 C131.60948947 -0.02486727 136.70790136 -0.02402625 141.80645752 -0.0372467 C146.60004269 -0.04880832 151.39320514 -0.04077371 156.18674469 -0.01766968 C157.94513497 -0.01238426 159.70356088 -0.01389351 161.46193695 -0.02272034 C163.86410095 -0.03366639 166.26491406 -0.01992495 168.66699219 0 C169.36135691 -0.00892289 170.05572163 -0.01784577 170.7711277 -0.02703905 C175.72485563 0.05255585 178.49447847 1.45242688 182.33349609 4.50793457 C185.96183273 8.32723629 186.64350068 11.39072463 186.83349609 16.50793457 C186.64350068 21.62514451 185.96183273 24.68863285 182.33349609 28.50793457 C177.79238124 32.12224759 174.34607941 33.08884787 168.66699219 33.01586914 C167.538592 33.02522908 167.538592 33.02522908 166.38739586 33.03477812 C163.87691907 33.0506812 161.36741688 33.038115 158.85693359 33.0255127 C157.05299312 33.03093503 155.24905707 33.03805831 153.44512939 33.04675293 C148.55256527 33.064976 143.66033883 33.05792292 138.76776886 33.04523659 C133.64562577 33.03510369 128.52351143 33.04450308 123.40136719 33.05078125 C114.79991469 33.0580568 106.1985996 33.04847234 97.59716797 33.02941895 C87.6552625 33.00765041 77.71368516 33.01470184 67.77178764 33.03672457 C59.23318614 33.05488117 50.69468337 33.05743561 42.1560688 33.04696989 C37.05750272 33.04073641 31.95909082 33.03989539 26.86053467 33.05311584 C22.0669495 33.06467746 17.27378704 33.05664285 12.4802475 33.03353882 C10.72185721 33.0282534 8.96343131 33.02976266 7.20505524 33.03858948 C4.80289124 33.04953553 2.40207813 33.03579409 0 33.01586914 C-1.04154708 33.02925347 -1.04154708 33.02925347 -2.10413551 33.04290819 C-7.05786344 32.96331329 -9.82748629 31.56344226 -13.66650391 28.50793457 C-17.29484054 24.68863285 -17.97650849 21.62514451 -18.16650391 16.50793457 C-17.97650849 11.39072463 -17.29484054 8.32723629 -13.66650391 4.50793457 C-9.12538905 0.89362155 -5.67908722 -0.07297873 0 0 Z " fill="#7402FD" transform="translate(32.66650390625,169.4920654296875)"/>
</svg>
